<?xml version="1.0" standalone="no"?>
<!DOCTYPE svg PUBLIC "-//W3C//DTD SVG 20010904//EN"
 "http://www.w3.org/TR/2001/REC-SVG-20010904/DTD/svg10.dtd">
<svg version="1.0" xmlns="http://www.w3.org/2000/svg"
 width="1350.000000pt" height="1350.000000pt" viewBox="0 0 1350.000000 1350.000000"
 preserveAspectRatio="xMidYMid meet">
<metadata>
Created by potrace 1.10, written by Peter Selinger 2001-2011
</metadata>
<g transform="translate(0.000000,1350.000000) scale(0.100000,-0.100000)"
fill="#000000" stroke="none">
<path d="M7615 10798 c-3 -7 -6 -116 -7 -243 l-3 -230 -50 -1 c-70 -2 -118
-25 -154 -75 -50 -68 -37 -125 37 -163 17 -9 42 -16 56 -16 45 0 110 31 143
69 l33 36 0 218 c0 189 2 218 16 224 20 7 60 -23 102 -77 30 -39 33 -48 31
-107 -3 -82 14 -103 37 -47 46 107 22 189 -82 280 -36 32 -77 77 -91 101 -25
43 -58 58 -68 31z"/>
<path d="M9050 10465 c-81 -18 -177 -65 -253 -125 -34 -27 -103 -123 -131
-183 -15 -32 -34 -98 -43 -147 -15 -81 -15 -98 -1 -183 39 -234 189 -398 422
-459 88 -23 162 -23 253 2 103 27 175 66 247 132 58 53 136 163 136 192 0 6 5
17 11 23 14 14 39 145 39 208 0 257 -188 489 -438 541 -79 16 -165 16 -242 -1z
m256 -81 c168 -55 261 -149 328 -332 10 -27 16 -76 16 -135 0 -102 -14 -155
-67 -248 -31 -54 -127 -152 -167 -170 -12 -5 -28 -13 -36 -18 -57 -34 -102
-43 -213 -43 -85 0 -123 4 -145 16 -17 9 -37 16 -44 16 -19 0 -111 64 -152
105 -81 81 -136 218 -136 339 0 211 123 387 321 461 80 29 219 34 295 9z"/>
<path d="M8926 10169 c-41 -33 -51 -57 -30 -80 22 -25 30 -24 66 6 16 14 37
25 47 25 23 0 51 -31 51 -56 0 -32 23 -56 51 -52 19 2 25 10 27 37 5 50 -4 75
-40 110 -28 27 -38 31 -89 31 -42 0 -63 -5 -83 -21z"/>
<path d="M9328 10045 c-59 -40 -73 -76 -37 -96 17 -9 26 -7 48 8 57 42 95 34
105 -21 8 -42 36 -62 66 -46 44 24 12 121 -52 160 -44 27 -86 25 -130 -5z"/>
<path d="M8836 9938 c-28 -40 -15 -139 28 -225 22 -42 84 -97 148 -129 46 -24
65 -27 143 -27 111 0 166 22 237 95 57 58 63 92 21 109 -16 6 -41 17 -58 23
-32 14 -59 23 -170 61 -38 13 -95 34 -125 45 -30 12 -69 25 -85 29 -17 4 -39
12 -50 18 -46 24 -73 24 -89 1z m196 -113 c57 -19 128 -44 158 -56 30 -11 70
-24 88 -29 37 -9 62 -27 62 -45 0 -7 -27 -26 -59 -44 -101 -53 -199 -42 -297
36 -55 43 -92 116 -85 166 2 13 29 7 133 -28z"/>
<path d="M4240 10410 c-14 -4 -61 -15 -105 -24 -76 -17 -125 -28 -240 -56 -27
-7 -69 -16 -93 -20 -23 -4 -46 -10 -50 -14 -4 -4 -9 -125 -12 -269 l-5 -262
-47 3 c-115 9 -226 -100 -196 -190 16 -49 43 -73 97 -87 40 -10 58 -10 93 0
53 16 106 54 121 88 8 17 14 129 17 316 l5 290 55 17 c54 17 104 29 247 63 40
9 77 14 83 10 6 -4 10 -77 10 -196 l0 -189 -61 0 c-67 0 -114 -21 -156 -70
-28 -33 -37 -91 -19 -133 21 -51 54 -67 137 -67 62 0 77 4 106 26 74 56 73 50
73 421 0 306 -1 333 -17 341 -10 5 -29 6 -43 2z"/>
<path d="M5465 9959 c-21 -5 -71 -14 -110 -19 -120 -15 -225 -42 -302 -76 -17
-8 -36 -14 -41 -14 -6 0 -23 -6 -39 -14 -15 -8 -59 -30 -98 -48 -38 -18 -72
-36 -75 -39 -3 -3 -34 -23 -70 -44 -36 -21 -67 -42 -70 -46 -3 -3 -26 -23 -53
-43 -95 -72 -143 -117 -220 -206 -48 -56 -55 -64 -72 -92 -5 -9 -26 -40 -46
-70 -60 -87 -115 -205 -143 -303 -9 -33 -24 -81 -32 -106 -7 -26 -14 -62 -14
-80 0 -19 -7 -61 -15 -94 -10 -43 -14 -124 -15 -287 0 -214 -1 -229 -20 -248
-11 -11 -25 -20 -31 -20 -41 0 -249 -180 -249 -216 0 -6 -7 -17 -15 -24 -8 -7
-15 -20 -15 -30 0 -10 -7 -23 -15 -30 -8 -7 -15 -21 -15 -32 0 -11 -6 -32 -14
-46 -17 -33 -50 -181 -42 -189 3 -4 6 3 6 15 0 11 4 23 9 26 8 5 27 42 55 106
22 49 115 155 211 240 48 42 119 91 155 105 8 4 27 13 42 21 14 8 35 14 46 14
12 0 23 4 26 9 4 5 25 12 49 16 23 4 64 13 91 21 37 10 112 14 288 14 234 0
239 0 276 24 50 31 132 123 132 147 0 10 5 19 10 19 6 0 14 8 17 18 14 37 84
89 126 95 115 16 148 -23 213 -253 9 -30 20 -68 26 -85 6 -16 14 -48 18 -70 4
-22 12 -53 19 -68 6 -16 11 -39 11 -53 0 -13 5 -24 10 -24 15 0 30 45 30 86 0
19 7 51 15 71 8 19 15 50 15 68 0 18 6 55 14 81 14 47 27 112 45 221 5 28 14
66 19 85 13 39 30 130 41 213 4 34 13 70 19 82 7 12 12 32 12 45 0 13 11 40
25 60 29 43 78 63 135 53 79 -13 115 -66 126 -183 3 -37 10 -78 15 -92 5 -14
13 -59 18 -100 16 -124 39 -269 46 -279 3 -6 10 -48 15 -93 10 -99 27 -206 42
-268 6 -25 14 -76 17 -115 7 -78 18 -106 32 -84 5 8 9 37 9 64 0 28 7 77 15
108 8 32 15 76 15 99 0 22 6 70 14 107 21 98 36 194 46 299 5 51 14 107 19
125 5 18 15 66 21 107 32 210 68 444 86 555 8 50 21 133 29 185 32 210 38 223
115 259 56 26 80 26 130 1 64 -32 89 -74 96 -161 3 -41 10 -87 15 -104 4 -16
13 -75 20 -130 28 -252 56 -452 71 -515 5 -25 14 -88 18 -140 11 -118 26 -233
45 -328 8 -40 15 -96 15 -125 0 -29 7 -84 15 -122 8 -39 15 -90 15 -115 0 -25
7 -67 15 -94 8 -27 15 -74 15 -104 0 -30 5 -82 10 -116 6 -33 14 -88 18 -121
l8 -60 12 60 c7 33 17 99 22 148 5 48 14 96 20 106 5 11 10 44 10 73 0 29 7
78 15 108 8 30 15 70 15 89 0 19 6 60 14 90 16 63 33 168 47 284 5 43 11 83
15 89 4 5 10 35 14 66 19 143 34 193 71 233 35 38 38 39 101 39 58 0 67 -3 89
-27 40 -46 53 -75 61 -138 4 -33 14 -94 22 -135 8 -41 20 -100 26 -130 7 -30
16 -69 21 -85 5 -17 13 -57 19 -90 26 -161 40 -196 60 -154 12 24 31 82 41
122 5 21 13 45 18 55 4 9 14 31 22 47 9 20 31 38 63 54 45 21 53 22 90 10 35
-12 126 -91 126 -110 0 -4 24 -23 54 -43 l54 -36 276 0 c174 0 285 4 303 11
15 6 48 14 73 19 60 11 123 35 128 49 2 6 10 11 19 11 8 0 26 9 40 20 l25 20
-1 197 c-2 154 -5 203 -17 220 -8 13 -14 46 -14 78 0 31 -5 66 -12 78 -6 12
-15 38 -19 57 -15 72 -75 216 -120 285 -10 17 -22 37 -26 45 -14 31 -129 177
-187 239 -61 63 -206 181 -224 181 -6 0 -12 7 -16 15 -3 8 -10 15 -15 15 -6 0
-29 13 -53 29 -38 25 -115 63 -228 114 -19 8 -60 23 -90 32 -30 9 -65 21 -78
26 -13 5 -36 9 -52 9 -16 0 -41 5 -57 11 -53 22 -320 39 -763 49 -245 5 -528
14 -630 20 -226 12 -890 12 -945 -1z m3511 -1496 c-1 -176 -2 -188 -20 -191
-10 -2 -23 3 -28 12 -14 25 -31 19 -58 -20 -63 -88 -30 -79 -290 -76 -181 2
-238 6 -260 17 -16 8 -44 15 -63 15 -19 0 -40 7 -47 15 -7 8 -22 15 -35 15
-26 0 -78 25 -95 45 -7 8 -16 15 -21 15 -16 0 -113 64 -141 93 -34 33 -37 78
-8 109 18 20 20 20 20 3 0 -10 -7 -23 -16 -29 -20 -15 -10 -40 23 -55 23 -11
29 -9 53 14 29 28 97 37 87 11 -4 -10 0 -12 16 -8 12 2 27 9 34 14 7 5 14 5
18 -2 8 -13 45 -13 45 -1 0 6 8 10 18 10 70 2 185 12 193 16 5 3 25 -10 45
-31 31 -31 40 -35 59 -26 16 7 26 7 34 -1 9 -9 16 -8 31 1 26 16 53 16 47 0
-3 -9 7 -13 31 -14 36 -1 63 17 75 50 5 12 14 16 27 13 11 -3 26 3 36 14 23
25 64 25 71 0 3 -11 10 -22 17 -24 6 -3 -1 -3 -15 -1 -23 3 -26 0 -22 -17 3
-11 17 -25 30 -30 18 -7 22 -13 15 -22 -5 -6 -13 -22 -16 -34 -6 -18 -4 -22 8
-17 9 3 16 1 16 -5 0 -14 27 -14 35 -1 4 6 1 18 -6 26 -9 11 -10 23 -2 47 6
18 9 77 8 132 -1 55 2 108 7 118 9 17 11 17 27 3 16 -14 18 -37 17 -203z
m-1158 49 c6 -18 -15 -14 -22 4 -4 10 -1 14 6 12 6 -2 14 -10 16 -16z m748
-23 c-16 -4 -32 -12 -35 -17 -3 -5 -14 -1 -25 9 -18 17 -17 18 35 17 46 -1 50
-2 25 -9z m-3523 -99 c-3 -11 -9 -20 -14 -20 -5 0 -9 -11 -9 -24 0 -25 -16
-36 -53 -36 -19 0 -19 2 8 30 25 26 28 33 17 50 -11 18 -9 20 22 20 29 0 33
-3 29 -20z m-165 -101 c-18 -12 -48 -11 -48 1 0 17 34 29 48 18 11 -9 11 -13
0 -19z m-283 -4 c33 -1 68 -6 78 -10 9 -4 24 -2 31 4 10 8 16 9 21 1 3 -5 0
-12 -7 -15 -36 -13 -277 -37 -383 -39 -113 -1 -120 0 -120 18 0 18 8 20 74 23
40 1 79 7 85 12 7 6 18 6 26 1 8 -5 22 -5 32 1 10 6 22 8 26 5 4 -3 14 0 22 5
8 5 24 7 35 3 11 -3 47 -7 80 -9z m-465 -70 c10 -12 7 -15 -15 -21 -32 -8 -42
0 -25 21 16 19 24 19 40 0z"/>
<path d="M8751 8447 c-14 -17 -5 -27 25 -27 20 0 42 16 33 24 -15 13 -48 14
-58 3z"/>
<path d="M8322 8434 c9 -10 24 -14 33 -10 23 9 9 26 -23 26 -24 0 -25 -1 -10
-16z"/>
<path d="M8250 8393 c0 -5 9 -18 20 -28 11 -10 20 -14 20 -8 0 5 -9 18 -20 28
-11 10 -20 14 -20 8z"/>
<path d="M8747 8363 c-18 -17 -5 -33 28 -33 37 0 43 8 23 28 -13 13 -41 16
-51 5z"/>
<path d="M8333 8324 c-29 -12 -10 -24 38 -24 36 0 49 4 47 13 -5 12 -63 20
-85 11z"/>
<path d="M8468 8243 c-26 -7 -22 -25 5 -22 12 2 28 0 35 -5 8 -5 18 -4 24 2 8
8 3 14 -16 22 -15 5 -28 9 -29 9 -1 -1 -10 -3 -19 -6z"/>
<path d="M6571 8750 c0 -25 -8 -72 -16 -103 -8 -32 -15 -77 -15 -100 -1 -23
-7 -60 -15 -82 -8 -22 -15 -61 -15 -87 0 -26 -6 -80 -14 -120 -18 -89 -34
-195 -46 -308 -6 -47 -15 -98 -20 -114 -6 -16 -10 -50 -10 -75 0 -26 -7 -73
-15 -104 -8 -32 -15 -70 -15 -85 0 -24 -7 -74 -40 -292 -21 -137 -30 -214 -35
-290 -7 -110 -25 -174 -50 -176 -5 0 -28 -8 -50 -18 -28 -13 -53 -17 -85 -13
-50 7 -100 27 -100 41 0 5 -6 17 -13 25 -17 21 -34 97 -42 188 -5 53 -12 76
-26 89 -19 17 -20 17 -26 -4 -3 -12 -9 -22 -13 -22 -4 0 -10 -18 -14 -40 -6
-36 -9 -39 -25 -31 -10 6 -26 22 -35 36 -20 30 -30 31 -56 5 l-20 -20 -10 25
c-9 25 -40 35 -40 14 0 -7 -11 -9 -27 -6 -17 3 -42 -2 -65 -14 -20 -10 -39
-15 -42 -10 -8 12 -117 13 -131 1 -8 -7 -18 -4 -29 9 -14 16 -27 18 -73 15
-47 -4 -59 -2 -75 16 -22 24 -27 24 -52 5 -16 -12 -21 -12 -40 0 -12 8 -34 12
-50 9 -20 -3 -27 -1 -23 8 8 22 -22 68 -44 68 -23 0 -58 -36 -59 -61 0 -9 -10
-23 -22 -31 -19 -13 -25 -13 -52 1 -17 8 -47 16 -66 16 -29 0 -36 4 -38 23 -2
14 -10 22 -23 22 -22 0 -26 -28 -4 -36 22 -9 19 -44 -4 -44 -11 0 -23 5 -26
10 -3 6 -17 10 -31 10 -14 0 -34 5 -45 10 -14 8 -29 6 -59 -9 -36 -17 -40 -18
-38 -3 2 10 -3 16 -12 15 -45 -7 -77 -17 -92 -30 -13 -12 -21 -12 -38 -3 -18
10 -26 8 -45 -10 -15 -14 -25 -18 -30 -11 -12 21 -55 12 -67 -14 -10 -23 -12
-23 -24 -8 -20 28 -68 6 -72 -33 -3 -29 60 -168 94 -205 8 -8 14 -21 14 -27 0
-6 6 -15 13 -19 6 -4 38 -40 69 -79 116 -145 197 -221 291 -269 20 -11 49 -31
64 -44 26 -24 26 -25 20 -130 -13 -208 -71 -398 -175 -566 -41 -66 -79 -124
-86 -130 -19 -16 -56 -67 -56 -77 0 -12 97 -2 175 18 53 14 132 42 260 91 111
42 240 102 290 134 17 10 37 22 45 26 8 3 41 26 73 50 31 24 61 43 65 43 4 0
12 8 19 18 6 11 27 26 46 35 19 9 73 52 121 94 48 43 98 86 110 96 22 18 39
18 347 8 451 -15 1117 -31 1284 -31 180 0 429 17 525 36 137 28 345 94 425
136 17 9 53 28 80 42 73 38 97 53 104 63 3 5 33 29 66 53 88 63 148 123 229
230 129 169 175 255 225 420 63 206 76 284 76 451 0 106 -3 128 -17 143 -18
17 -44 13 -32 -5 3 -6 -2 -19 -12 -31 -10 -11 -19 -27 -19 -36 0 -10 -7 -17
-15 -17 -11 0 -15 12 -15 52 0 58 -13 78 -44 68 -24 -7 -51 -53 -43 -74 3 -10
-2 -12 -24 -8 -30 5 -75 -12 -110 -44 -20 -19 -21 -19 -38 0 -13 14 -16 28
-12 46 6 25 -9 36 -17 13 -2 -7 -19 -13 -38 -13 -25 0 -33 -4 -31 -16 1 -9 -9
-21 -23 -27 -14 -6 -25 -16 -25 -22 0 -5 -7 -10 -15 -10 -13 0 -15 7 -10 33 6
29 3 36 -19 50 -33 22 -46 21 -46 -2 0 -16 -8 -19 -51 -19 -32 -1 -58 -7 -69
-17 -9 -8 -24 -13 -32 -10 -8 3 -20 -1 -27 -9 -11 -13 -15 -12 -32 5 -11 11
-27 18 -35 15 -8 -3 -21 -9 -30 -12 -10 -5 -17 0 -21 15 -3 11 -10 21 -15 21
-13 0 -47 -42 -48 -57 0 -14 -28 -17 -46 -5 -6 4 -14 17 -18 30 -4 13 -15 22
-27 22 -10 0 -19 4 -19 9 0 13 100 101 115 101 7 0 18 7 25 15 7 8 19 15 28
15 8 0 37 14 64 30 27 17 72 35 100 40 27 6 55 13 61 17 6 4 108 6 226 4 231
-2 205 -6 410 57 29 10 56 23 58 29 3 7 32 29 64 49 147 89 229 215 280 429
22 97 23 108 4 75 -15 -27 -16 -29 -50 -105 -39 -88 -152 -214 -261 -291 -67
-48 -229 -124 -264 -124 -10 0 -45 -7 -77 -15 -44 -12 -120 -15 -333 -15 -240
0 -282 2 -327 18 -28 10 -57 22 -65 28 -20 14 -75 44 -82 44 -3 0 -6 -7 -6
-16 0 -9 -6 -30 -13 -47 -8 -18 -22 -59 -32 -92 -9 -33 -22 -71 -27 -85 -6
-14 -14 -38 -19 -55 -4 -16 -19 -61 -33 -100 -14 -38 -26 -77 -26 -85 -1 -18
-26 -50 -60 -73 -37 -26 -108 -22 -152 8 -37 25 -58 72 -74 167 -3 18 -12 50
-20 71 -8 20 -14 52 -14 70 0 17 -7 54 -15 81 -8 27 -15 62 -15 78 0 16 -8 53
-17 81 l-17 52 -13 -85 c-6 -47 -15 -107 -18 -135 -3 -27 -12 -84 -20 -125
-22 -115 -37 -208 -45 -280 -3 -36 -12 -85 -18 -110 -6 -25 -19 -99 -27 -165
-9 -66 -21 -140 -26 -165 -11 -50 -31 -164 -48 -280 -16 -100 -27 -127 -70
-156 -75 -51 -192 -19 -225 61 -8 19 -18 74 -21 122 -4 49 -11 102 -16 118 -5
17 -14 73 -19 125 -26 241 -55 467 -72 555 -6 33 -14 98 -18 145 -7 83 -19
162 -41 285 -7 33 -15 101 -19 150 -10 119 -28 246 -46 322 -7 34 -14 85 -14
115 0 29 -5 71 -11 93 -7 22 -15 74 -19 115 -5 56 -8 64 -9 30z m2049 -1208
c0 -4 -9 -8 -20 -9 -11 -1 -20 2 -20 8 0 5 9 9 20 9 11 0 20 -4 20 -8z m-180
-22 c0 -13 -7 -20 -20 -20 -19 0 -19 1 -2 19 22 25 22 25 22 1z m-110 -45 c0
-8 -7 -15 -15 -15 -8 0 -15 7 -15 15 0 8 7 15 15 15 8 0 15 -7 15 -15z m-480
-46 c0 -7 -17 -34 -37 -61 -28 -37 -39 -45 -42 -32 -1 9 4 21 13 26 9 5 16 14
16 19 0 13 33 58 43 59 4 0 7 -5 7 -11z m-3105 -398 c7 -12 -12 -24 -25 -16
-11 7 -4 25 10 25 5 0 11 -4 15 -9z m255 -6 c0 -8 -7 -15 -15 -15 -8 0 -15 7
-15 15 0 8 7 15 15 15 8 0 15 -7 15 -15z"/>
<path d="M3480 8581 c-14 -5 -61 -16 -105 -26 -44 -9 -96 -22 -115 -29 l-35
-12 -3 -154 c-3 -173 -5 -180 -72 -180 -27 0 -43 -7 -62 -27 -36 -39 -41 -61
-22 -93 32 -54 116 -57 172 -7 20 19 22 29 22 141 0 67 3 150 6 186 l7 66 66
18 c127 33 138 36 155 36 15 0 16 -13 14 -112 -3 -104 -5 -113 -23 -116 -51
-7 -66 -14 -94 -43 -41 -41 -41 -79 0 -113 40 -34 77 -33 127 4 l42 30 0 220
0 220 -27 -1 c-16 0 -39 -4 -53 -8z"/>
<path d="M5781 8080 c-7 -47 -16 -112 -20 -145 -4 -33 -13 -76 -19 -95 -11
-38 -29 -137 -42 -240 -5 -36 -13 -78 -19 -93 -24 -62 -4 -147 35 -147 8 0 17
-6 20 -14 3 -8 14 -16 26 -19 15 -4 18 -9 10 -23 -5 -9 -7 -25 -4 -36 3 -14 7
-16 18 -7 8 6 14 18 14 25 0 22 19 16 82 -26 33 -22 63 -40 65 -40 3 0 3 15 0
33 -3 17 -10 66 -17 107 -26 174 -42 268 -52 310 -6 25 -14 77 -18 115 -4 39
-13 99 -19 135 -6 36 -16 97 -22 135 -18 115 -24 119 -38 25z"/>
<path d="M5096 8005 c-26 -24 -65 -51 -85 -62 -20 -10 -38 -21 -41 -25 -3 -3
-32 -16 -65 -27 -53 -19 -82 -21 -285 -21 -170 -1 -235 -4 -265 -15 -22 -8
-56 -15 -76 -15 -20 0 -39 -3 -43 -7 -4 -5 95 -13 221 -20 219 -11 295 -20
366 -42 17 -6 59 -18 92 -27 33 -9 74 -22 90 -29 90 -39 145 -66 150 -75 3 -6
17 -10 30 -10 13 0 27 -4 30 -10 3 -5 17 -10 31 -10 24 0 25 2 18 47 -4 26
-13 62 -20 80 -8 18 -14 41 -14 52 0 10 -7 32 -15 47 -8 16 -15 39 -15 50 0
12 -7 38 -15 57 -8 20 -15 47 -15 60 0 47 -22 48 -74 2z"/>
<path d="M4165 7800 c-3 -5 3 -10 14 -10 12 0 21 5 21 10 0 6 -6 10 -14 10 -8
0 -18 -4 -21 -10z"/>
<path d="M8750 7740 c0 -5 12 -10 26 -10 14 0 23 4 19 10 -3 6 -15 10 -26 10
-10 0 -19 -4 -19 -10z"/>
<path d="M8717 7649 c-8 -29 0 -44 29 -58 31 -14 76 -15 55 -2 -8 5 -19 7 -26
5 -6 -3 -15 11 -21 32 -10 43 -29 55 -37 23z"/>
<path d="M8114 7646 c-9 -24 4 -48 23 -44 12 2 18 12 18 28 0 29 -32 41 -41
16z"/>
<path d="M9805 7648 c-22 -5 -66 -16 -97 -24 -32 -8 -65 -14 -74 -14 -9 0 -47
-9 -85 -21 l-69 -21 -2 -186 -3 -187 -50 -5 c-63 -7 -97 -30 -120 -79 -15 -35
-16 -41 -1 -68 30 -60 93 -79 158 -47 69 33 72 45 73 278 l0 209 55 18 c78 25
148 42 198 47 l43 4 -3 -133 -3 -134 -53 -5 c-119 -11 -167 -136 -72 -185 59
-30 129 -12 169 44 20 27 21 42 21 256 0 137 -4 234 -10 246 -12 21 -16 21
-75 7z"/>
<path d="M8175 7630 c-4 -7 -3 -16 3 -22 14 -14 45 -2 40 15 -6 16 -34 21 -43
7z"/>
<path d="M8233 7574 c-7 -18 11 -39 26 -30 17 11 13 46 -4 46 -9 0 -18 -7 -22
-16z"/>
<path d="M4091 7451 c-1 -42 2 -52 11 -43 8 8 8 23 1 54 l-11 43 -1 -54z"/>
<path d="M5328 7364 c-5 -4 -8 -19 -8 -33 0 -18 3 -22 11 -14 6 6 9 21 7 33
-1 12 -6 18 -10 14z"/>
<path d="M5667 7333 c-24 -31 -19 -77 8 -81 16 -2 26 7 39 35 12 25 14 39 7
41 -6 2 -17 9 -24 16 -10 10 -16 8 -30 -11z"/>
<path d="M4123 7300 c0 -25 2 -35 4 -22 2 12 2 32 0 45 -2 12 -4 2 -4 -23z"/>
<path d="M5739 7208 c-16 -31 -14 -29 -51 -35 -19 -2 -46 3 -63 11 -34 18 -58
20 -83 7 -9 -6 -34 -13 -55 -16 -54 -9 -47 -37 12 -47 88 -15 140 -16 145 -2
3 8 0 11 -8 8 -8 -3 -17 -1 -21 5 -12 21 38 11 56 -11 21 -23 29 -21 33 9 1
10 17 27 34 38 17 11 31 28 32 38 0 24 -17 21 -31 -5z"/>
<path d="M4374 7136 c-10 -8 -15 -18 -11 -22 4 -4 17 2 30 14 24 25 12 30 -19
8z"/>
<path d="M5080 4425 c-13 -14 -48 -42 -79 -62 -30 -21 -67 -48 -82 -61 -14
-12 -34 -28 -44 -36 -17 -12 -17 -15 10 -50 15 -20 29 -36 32 -36 4 0 120 62
181 96 31 19 33 19 65 0 17 -10 66 -36 107 -57 l75 -38 22 27 c22 26 31 62 16
62 -5 0 -21 13 -38 28 -16 15 -46 37 -65 49 -19 12 -47 33 -61 46 -29 28 -81
57 -102 57 -7 0 -24 -11 -37 -25z"/>
<path d="M6695 4389 c-44 -32 -87 -65 -95 -73 -8 -7 -27 -21 -42 -31 -34 -21
-35 -41 -4 -78 l23 -28 54 31 c30 17 65 36 79 43 14 6 31 17 38 24 16 16 78
17 87 2 4 -5 17 -14 28 -20 12 -5 45 -22 72 -38 28 -17 58 -30 68 -30 21 -1
56 36 56 59 0 19 -241 200 -265 200 -11 -1 -55 -28 -99 -61z"/>
<path d="M3718 3840 c-2 -311 -1 -571 1 -577 2 -9 30 -13 95 -13 l92 0 10 53
c8 44 12 52 29 49 11 -2 26 -11 32 -20 36 -48 49 -61 64 -62 8 0 24 -7 35 -15
14 -10 47 -14 121 -15 89 0 107 3 150 25 65 35 95 63 129 121 37 63 53 106 66
174 12 69 1 251 -18 288 -7 15 -14 33 -14 40 0 15 -64 114 -83 130 -7 5 -39
24 -72 42 -55 30 -67 32 -150 32 -104 -1 -152 -19 -210 -79 -19 -20 -38 -33
-43 -29 -4 4 -9 100 -12 212 l-5 205 -107 2 -108 2 -2 -565z m519 33 c57 -44
83 -111 83 -215 0 -69 -4 -96 -21 -127 -44 -85 -117 -121 -211 -106 -57 10
-104 48 -130 103 -17 39 -20 60 -16 146 5 114 17 143 75 193 35 30 43 33 111
33 65 0 78 -3 109 -27z"/>
<path d="M9275 4401 c-2 -4 -5 -234 -6 -511 -3 -489 -2 -506 17 -541 25 -46
41 -62 84 -84 37 -20 169 -32 214 -21 24 6 26 11 25 54 -2 90 -10 106 -57 121
-74 23 -71 3 -76 515 -2 251 -7 460 -11 464 -9 9 -184 11 -190 3z"/>
<path d="M9807 4396 c-9 -10 -12 -147 -12 -572 l0 -559 103 -3 c77 -2 102 0
103 10 1 7 2 54 3 104 l1 92 45 50 c40 44 95 82 104 71 2 -2 22 -35 45 -74 63
-104 138 -225 152 -241 16 -19 229 -21 229 -1 0 7 -19 41 -42 76 -24 34 -47
70 -53 79 -5 10 -22 33 -36 52 -15 19 -43 67 -64 105 -21 39 -48 84 -60 100
-40 55 -38 70 14 133 26 31 84 95 129 142 45 47 82 88 82 93 0 4 -49 7 -108 7
l-109 0 -90 -92 c-49 -51 -111 -117 -138 -145 -59 -66 -89 -71 -100 -17 -3 20
-5 160 -4 310 2 150 1 275 -1 277 -3 3 -45 7 -93 10 -62 3 -91 1 -100 -7z"/>
<path d="M2850 4341 c-96 -30 -177 -77 -233 -136 -37 -40 -92 -124 -102 -155
-4 -14 -11 -29 -15 -35 -4 -5 -13 -56 -20 -112 -11 -85 -11 -121 0 -204 7 -56
19 -113 26 -128 8 -14 14 -32 14 -39 0 -21 64 -112 107 -154 43 -42 139 -108
157 -108 6 0 25 -7 41 -16 23 -12 60 -16 155 -16 145 0 194 16 260 84 50 50
80 47 80 -10 0 -20 4 -42 8 -48 10 -16 139 -15 152 1 7 8 9 112 8 296 l-3 284
-225 0 -225 0 -3 -87 -3 -88 115 0 c128 0 126 1 126 -75 0 -56 -42 -107 -116
-141 -64 -29 -190 -34 -238 -9 -15 8 -34 15 -41 15 -26 0 -97 70 -121 119 -9
20 -22 45 -28 56 -6 11 -12 74 -14 139 -5 154 12 217 78 285 59 59 89 81 115
81 12 0 26 5 32 11 6 6 43 11 83 11 40 0 77 -5 83 -11 6 -6 20 -11 30 -11 23
0 81 -33 120 -69 l27 -25 65 64 c36 36 65 72 65 81 0 22 -80 93 -133 117 -75
35 -130 45 -252 48 -90 2 -134 -2 -175 -15z"/>
<path d="M7750 4330 l-415 -5 -3 -79 c-2 -57 1 -82 10 -88 7 -4 77 -7 155 -6
107 1 146 -2 158 -12 15 -12 16 -56 14 -435 -1 -232 1 -427 5 -433 10 -17 182
-16 192 0 4 7 8 203 8 437 l1 425 25 13 c19 10 57 12 150 7 80 -4 135 -2 153
5 26 10 27 12 27 91 0 57 -4 80 -12 80 -7 0 -22 1 -33 3 -11 1 -207 0 -435 -3z"/>
<path d="M5055 4094 c-16 -3 -44 -12 -62 -20 -17 -7 -36 -14 -43 -14 -6 0 -36
-16 -66 -36 -79 -52 -129 -134 -158 -256 -20 -85 -20 -132 0 -216 19 -78 38
-122 78 -177 28 -39 116 -105 140 -105 6 0 25 -7 41 -16 46 -25 255 -25 315 0
85 35 170 91 170 112 0 3 -25 31 -55 61 -50 48 -58 52 -78 42 -12 -7 -24 -15
-27 -20 -3 -4 -29 -17 -58 -28 -101 -40 -211 -18 -264 51 -33 44 -55 105 -42
118 6 6 124 11 294 12 l285 3 3 80 c3 76 -14 166 -39 205 -5 8 -13 24 -18 35
-16 36 -78 100 -112 116 -90 43 -117 50 -193 54 -45 2 -94 1 -111 -1z m163
-179 c48 -19 82 -64 89 -116 9 -66 1 -69 -171 -69 -163 0 -196 5 -196 26 0 22
45 107 68 127 49 44 143 58 210 32z"/>
<path d="M6710 4094 c-137 -27 -232 -104 -302 -244 -20 -40 -22 -60 -22 -190
0 -144 0 -145 32 -210 47 -92 114 -149 232 -198 63 -26 252 -21 330 9 47 18
141 79 147 95 6 15 -25 54 -75 98 l-33 29 -29 -22 c-43 -31 -125 -61 -170 -61
-44 0 -111 23 -151 52 -42 31 -65 82 -60 136 1 9 65 12 286 12 l285 0 6 26 c8
33 -4 214 -15 228 -5 6 -12 22 -16 36 -7 24 -53 89 -86 120 -8 8 -33 23 -55
33 -21 10 -52 25 -68 33 -29 15 -190 27 -236 18z m161 -174 c30 0 78 -55 96
-109 25 -78 18 -81 -173 -81 -84 0 -159 3 -168 6 -22 8 -21 62 2 95 49 73 110
102 192 93 19 -2 42 -4 51 -4z"/>
<path d="M6140 4078 c-99 -44 -132 -69 -145 -108 -13 -39 -38 -19 -49 40 l-11
55 -102 3 -103 3 0 -411 0 -410 110 0 c97 0 110 2 110 17 0 303 7 461 20 483
25 41 63 80 95 96 37 19 128 44 160 44 25 0 25 1 25 90 0 50 1 93 3 98 4 12
-86 12 -113 0z"/>
<path d="M8515 4070 c-106 -35 -185 -82 -185 -109 0 -23 79 -121 97 -121 8 0
29 11 46 24 18 13 51 29 74 35 23 7 45 16 48 21 11 17 77 11 122 -11 70 -34
92 -84 55 -128 -14 -18 -38 -25 -122 -37 -200 -29 -303 -75 -352 -156 -27 -43
-25 -174 3 -227 39 -76 132 -121 251 -121 78 0 133 19 197 67 24 18 48 33 54
33 5 0 23 -15 41 -34 17 -19 44 -39 59 -45 38 -15 130 -14 145 1 7 7 12 39 12
72 0 51 -4 64 -26 87 -23 24 -28 41 -36 126 -5 54 -7 131 -4 171 3 41 0 104
-7 145 -11 67 -15 75 -67 128 -67 68 -123 89 -255 95 -71 3 -103 0 -150 -16z
m265 -439 c26 -49 0 -174 -44 -210 -10 -8 -42 -23 -71 -33 -54 -18 -55 -18
-102 4 -63 30 -90 80 -73 133 13 38 49 69 95 79 17 3 59 15 95 25 84 24 87 25
100 2z"/>
<path d="M5657 2818 c-19 -17 -27 -33 -27 -55 0 -23 -6 -36 -21 -44 l-21 -11
21 -22 c19 -20 21 -34 21 -130 0 -97 2 -107 18 -104 14 3 18 18 22 105 5 104
10 118 45 125 11 2 21 11 23 20 2 12 -5 17 -30 20 -22 2 -34 9 -36 21 -5 25
26 57 52 54 15 -1 21 4 21 18 0 31 -53 32 -88 3z"/>
<path d="M10248 2819 c-21 -16 -28 -29 -28 -55 0 -28 -5 -36 -25 -44 -24 -9
-35 -30 -16 -30 5 0 17 -7 25 -16 13 -12 16 -38 16 -120 0 -95 2 -105 18 -102
14 3 18 19 22 111 5 101 6 108 29 120 32 16 32 31 -1 35 -23 3 -28 8 -28 29 0
28 24 52 53 53 10 0 17 8 17 20 0 27 -46 26 -82 -1z"/>
<path d="M4127 2815 c-14 -35 11 -55 43 -35 12 7 12 13 4 27 -15 24 -40 28
-47 8z"/>
<path d="M6270 2815 c-11 -13 -11 -19 3 -32 21 -21 49 -9 45 19 -4 28 -30 35
-48 13z"/>
<path d="M7152 2818 c-18 -18 -14 -36 9 -43 27 -9 43 7 34 34 -7 23 -25 27
-43 9z"/>
<path d="M7856 2808 c-3 -13 -6 -77 -6 -143 0 -117 10 -189 27 -205 18 -17 50
-19 69 -6 18 14 18 15 -8 25 l-28 10 -2 168 c-3 163 -4 168 -24 171 -15 2 -23
-4 -28 -20z"/>
<path d="M8461 2811 c-6 -10 -10 -35 -9 -55 1 -39 -14 -66 -26 -47 -4 6 -25
11 -46 11 -32 0 -46 -7 -75 -35 -33 -34 -35 -39 -35 -105 0 -58 4 -73 25 -98
31 -37 78 -47 132 -28 28 10 44 11 51 4 26 -26 32 7 32 172 0 92 -3 175 -6
184 -8 22 -31 20 -43 -3z m-25 -152 c14 -16 19 -36 19 -79 0 -67 -21 -100 -66
-100 -34 0 -55 20 -68 66 -25 92 59 175 115 113z"/>
<path d="M10382 2818 c-25 -25 -2 -55 33 -42 16 7 18 14 9 38 -7 19 -25 21
-42 4z"/>
<path d="M2547 2790 c-51 -32 -69 -74 -69 -163 0 -72 3 -84 29 -121 34 -49 87
-70 150 -61 48 7 93 38 93 64 0 31 -12 31 -50 1 -87 -69 -180 -7 -180 120 0
116 88 174 175 114 40 -27 62 -21 51 12 -16 51 -141 72 -199 34z"/>
<path d="M7450 2735 c-8 -10 -31 -15 -69 -15 -39 -1 -63 -6 -77 -18 -31 -26
-39 -75 -20 -113 12 -24 13 -35 5 -46 -7 -7 -9 -28 -6 -47 4 -24 1 -39 -9 -47
-20 -17 -17 -53 7 -75 24 -22 129 -31 171 -15 38 14 62 62 47 95 -14 30 -27
36 -107 46 -35 5 -66 11 -69 13 -13 13 12 27 48 27 75 0 124 60 99 120 -11 28
-10 33 9 54 21 22 19 36 -4 36 -7 0 -18 -7 -25 -15z m-42 -61 c42 -29 16 -104
-37 -104 -44 0 -66 67 -34 102 20 22 42 23 71 2z m47 -235 c6 -6 6 -16 -1 -27
-8 -13 -28 -18 -78 -20 l-66 -3 0 30 c0 23 5 31 23 34 30 7 110 -3 122 -14z"/>
<path d="M2835 2696 c-44 -36 -23 -51 34 -25 40 18 46 18 67 4 43 -28 26 -63
-32 -71 -21 -3 -50 -11 -62 -17 -33 -16 -54 -60 -43 -89 19 -50 67 -66 131
-44 29 10 48 12 54 6 15 -15 56 -12 56 4 0 8 -6 16 -12 18 -9 3 -15 36 -18 96
-5 78 -9 95 -30 117 -33 35 -102 35 -145 1z m123 -150 c5 -38 -23 -66 -64 -66
-63 0 -68 72 -6 86 15 3 32 7 37 9 20 7 30 -2 33 -29z"/>
<path d="M3097 2714 c-4 -4 -7 -53 -7 -109 0 -87 3 -106 20 -128 27 -34 70
-43 114 -22 27 13 39 14 56 5 14 -7 26 -8 31 -3 5 5 8 66 7 134 l-3 124 -25 0
c-25 0 -25 -1 -28 -99 -2 -87 -5 -100 -25 -117 -12 -10 -31 -18 -42 -19 -44 0
-50 14 -55 127 -4 87 -8 108 -20 111 -9 1 -19 0 -23 -4z"/>
<path d="M3407 2692 c-15 -15 -27 -37 -27 -48 0 -25 49 -74 74 -74 9 0 31 -7
47 -16 24 -12 30 -21 27 -42 -3 -23 -8 -27 -41 -30 -24 -2 -48 3 -64 13 -36
24 -56 3 -26 -27 17 -17 34 -21 83 -22 55 -1 62 2 85 29 13 17 24 38 25 48 0
24 -56 77 -82 77 -22 0 -60 18 -70 33 -9 15 1 36 24 48 14 7 27 6 50 -5 38
-20 48 -20 48 -3 0 27 -36 47 -81 47 -36 0 -51 -5 -72 -28z"/>
<path d="M3679 2697 c-112 -94 -49 -270 90 -253 46 6 81 29 81 53 0 18 -35 17
-50 -2 -20 -24 -73 -19 -99 9 -13 13 -21 32 -19 43 3 15 16 19 88 23 l85 5 3
38 c3 32 -2 43 -31 72 -29 29 -42 35 -78 35 -30 -1 -52 -8 -70 -23z m107 -32
c42 -42 29 -60 -41 -60 -54 0 -60 2 -63 21 -3 23 39 64 65 64 8 0 25 -11 39
-25z"/>
<path d="M4007 2703 c-13 -13 -19 -14 -29 -5 -7 7 -22 12 -35 12 l-24 0 3
-127 c3 -122 4 -128 24 -131 20 -3 22 2 26 87 4 98 13 117 62 129 40 10 51 52
14 52 -13 0 -31 -8 -41 -17z"/>
<path d="M4130 2585 c0 -125 2 -136 18 -133 15 3 17 17 17 133 0 116 -2 130
-17 133 -16 3 -18 -8 -18 -133z"/>
<path d="M4279 2684 c-31 -32 -34 -40 -34 -97 0 -44 6 -71 18 -91 25 -38 80
-60 131 -52 47 8 66 21 66 47 0 23 -18 24 -44 4 -31 -23 -74 -18 -101 11 -14
15 -25 35 -25 45 0 16 11 19 93 21 88 3 92 4 95 26 9 64 -48 122 -120 122 -37
0 -49 -5 -79 -36z m134 -22 c10 -9 17 -25 15 -36 -3 -18 -11 -21 -66 -24 -51
-2 -63 0 -69 14 -4 12 4 26 26 46 34 31 59 31 94 0z"/>
<path d="M4675 2694 c-14 -15 -25 -37 -25 -49 0 -30 44 -68 92 -80 48 -12 68
-36 52 -62 -15 -25 -63 -28 -102 -7 -44 23 -62 7 -28 -26 37 -34 125 -34 161
0 36 34 34 80 -5 108 -16 12 -36 22 -45 22 -21 0 -75 28 -75 39 0 40 48 55 90
29 29 -18 44 1 24 30 -12 18 -25 22 -65 22 -41 0 -54 -5 -74 -26z"/>
<path d="M4938 2702 c-54 -33 -28 -63 28 -33 38 21 58 18 82 -12 19 -22 -7
-46 -63 -56 -83 -15 -118 -76 -76 -131 23 -29 82 -34 126 -10 21 11 30 12 45
2 23 -14 50 -16 50 -3 0 5 -7 22 -15 37 -9 18 -15 57 -15 102 0 64 -3 76 -25
97 -29 30 -95 34 -137 7z m120 -150 c5 -32 -28 -71 -60 -72 -41 0 -58 10 -58
35 0 28 27 52 65 58 43 6 50 3 53 -21z"/>
<path d="M5270 2705 c-9 -11 -16 -12 -26 -4 -7 6 -23 9 -35 7 -23 -3 -25 -18
-21 -186 2 -70 3 -73 25 -70 21 3 22 8 25 100 3 90 4 97 28 113 35 22 76 16
91 -15 8 -14 13 -57 12 -100 -1 -105 -2 -102 24 -98 20 3 22 9 25 78 4 97 -3
132 -33 164 -28 30 -94 37 -115 11z"/>
<path d="M5870 2705 c-9 -11 -16 -13 -24 -5 -5 5 -20 10 -33 10 l-24 0 3 -127
c3 -120 4 -128 23 -128 18 0 20 8 25 90 3 50 9 96 13 102 4 7 22 16 40 21 41
11 52 52 14 52 -14 0 -30 -7 -37 -15z"/>
<path d="M6015 2687 c-55 -55 -59 -147 -10 -206 40 -47 123 -52 174 -10 19 15
22 22 12 32 -9 9 -19 8 -42 -6 -45 -25 -84 -22 -109 10 -37 47 -25 57 75 63
l90 5 -2 45 c-3 62 -44 100 -109 100 -39 0 -51 -5 -79 -33z m119 -18 c33 -26
34 -57 3 -64 -37 -10 -110 -1 -115 12 -5 16 51 73 71 73 8 0 26 -9 41 -21z"/>
<path d="M6282 2708 c-10 -13 -15 -220 -5 -245 3 -7 14 -13 24 -13 18 0 19 7
17 132 -3 129 -11 156 -36 126z"/>
<path d="M6410 2584 c0 -124 2 -135 18 -132 14 3 18 18 22 97 5 82 8 95 29
112 32 26 76 25 95 -3 12 -16 16 -48 16 -116 0 -84 2 -93 18 -90 15 3 17 16
17 110 0 99 -2 108 -24 132 -29 31 -84 35 -120 9 -22 -15 -25 -15 -36 0 -29
40 -35 18 -35 -119z"/>
<path d="M6957 2713 c-4 -3 -7 -64 -7 -135 0 -121 1 -128 20 -128 18 0 20 7
20 75 0 95 13 123 68 146 25 11 42 24 40 32 -7 19 -44 20 -73 1 -25 -17 -28
-17 -37 -1 -10 18 -20 21 -31 10z"/>
<path d="M7154 2707 c-2 -7 -3 -67 -2 -132 3 -105 5 -120 21 -123 15 -3 17 8
17 132 0 115 -2 136 -15 136 -9 0 -18 -6 -21 -13z"/>
<path d="M7582 2686 c-36 -34 -37 -36 -37 -105 0 -63 3 -73 28 -99 56 -58 142
-53 188 11 68 94 10 227 -101 227 -32 0 -48 -7 -78 -34z m128 -26 c22 -16 25
-26 25 -80 0 -53 -4 -65 -24 -81 -37 -30 -78 -25 -101 14 -59 97 18 211 100
147z"/>
<path d="M8028 2702 c-28 -17 -36 -36 -20 -46 5 -3 27 5 49 16 40 20 43 20 67
4 50 -32 27 -76 -40 -76 -75 0 -119 -70 -79 -127 21 -30 64 -37 116 -19 28 10
47 12 53 6 11 -11 49 -13 59 -3 4 3 -1 16 -12 27 -15 16 -20 40 -23 103 -3 70
-7 85 -27 107 -20 21 -33 26 -70 25 -25 0 -58 -8 -73 -17z m120 -155 c5 -45
-14 -67 -58 -67 -29 0 -42 5 -50 20 -15 27 3 58 38 66 15 3 32 7 37 9 20 7 30
-2 33 -28z"/>
<path d="M8629 2703 c-40 -25 -59 -65 -59 -125 0 -98 74 -154 169 -128 38 10
57 32 45 51 -8 13 -23 11 -40 -6 -24 -23 -71 -18 -100 10 -46 46 -31 59 71 65
77 4 90 8 93 23 6 32 -7 63 -40 96 -25 25 -40 31 -72 31 -23 0 -53 -8 -67 -17z
m99 -29 c16 -11 22 -24 20 -42 -3 -25 -7 -27 -51 -30 -53 -3 -77 9 -70 36 4
18 49 51 68 52 6 0 21 -7 33 -16z"/>
<path d="M9011 2699 c-49 -40 -18 -128 44 -129 24 0 85 -36 85 -49 0 -37 -84
-55 -115 -25 -15 16 -45 13 -45 -4 0 -5 9 -17 21 -28 15 -14 36 -19 81 -19 51
0 63 4 79 24 10 13 19 36 19 52 0 35 -45 79 -81 79 -35 0 -74 32 -66 53 11 29
40 37 75 20 43 -21 65 -4 37 27 -25 28 -101 27 -134 -1z"/>
<path d="M9268 2702 c-54 -33 -21 -58 36 -28 32 16 63 11 76 -14 15 -27 -10
-51 -60 -57 -69 -9 -108 -54 -94 -110 12 -48 110 -65 155 -26 14 12 18 11 29
-2 16 -19 60 -20 60 -1 0 8 -7 16 -15 20 -12 4 -15 24 -15 90 0 76 -3 87 -26
115 -22 27 -32 31 -72 31 -26 0 -59 -8 -74 -18z m106 -128 c20 -8 20 -43 0
-72 -17 -25 -71 -31 -92 -10 -28 28 -2 72 48 81 14 2 26 5 27 6 1 0 8 -2 17
-5z"/>
<path d="M9530 2584 c0 -124 2 -135 18 -132 14 3 18 18 22 93 3 50 9 96 13
103 15 23 61 40 85 31 32 -12 42 -48 42 -145 0 -76 2 -85 18 -82 15 3 17 16
17 110 0 99 -2 108 -24 132 -29 31 -84 35 -119 10 -21 -15 -25 -15 -41 0 -10
9 -21 16 -24 16 -4 0 -7 -61 -7 -136z"/>
<path d="M9841 2694 c-12 -15 -21 -38 -21 -51 0 -31 41 -69 84 -77 76 -14 84
-86 9 -86 -20 0 -44 7 -54 16 -11 10 -23 13 -33 7 -13 -7 -13 -11 3 -32 16
-21 27 -24 79 -25 75 -1 102 19 102 74 0 29 -6 41 -30 58 -16 12 -38 22 -48
22 -11 0 -31 9 -46 21 -21 17 -24 24 -16 40 12 22 50 25 80 7 15 -10 22 -10
32 0 9 9 7 16 -7 32 -13 15 -31 20 -66 20 -39 0 -51 -4 -68 -26z"/>
<path d="M10393 2713 c-10 -3 -13 -40 -13 -135 0 -128 0 -129 23 -126 21 3 22
7 25 129 3 128 -1 144 -35 132z"/>
<path d="M10517 2713 c-4 -3 -7 -62 -7 -130 0 -104 3 -125 16 -130 25 -9 34
16 34 103 0 71 3 83 23 102 13 12 35 22 49 22 45 0 57 -26 60 -130 3 -81 6
-95 21 -98 15 -3 17 7 17 111 0 106 -2 115 -23 135 -29 27 -92 30 -120 5 -18
-17 -19 -17 -32 0 -13 18 -27 22 -38 10z"/>
<path d="M6707 2504 c-12 -12 -8 -41 8 -54 11 -9 12 -17 5 -30 -26 -49 0 -54
30 -5 19 31 20 38 8 62 -13 27 -37 40 -51 27z"/>
</g>
</svg>
